<?xml version="1.0" encoding="UTF-8" standalone="no"?>
<!-- Created with Inkscape (http://www.inkscape.org/) -->

<svg
   width="448.43155mm"
   height="142.33537mm"
   viewBox="0 0 448.43155 142.33537"
   version="1.1"
   id="svg1"
   xml:space="preserve"
   xmlns="http://www.w3.org/2000/svg"
   xmlns:svg="http://www.w3.org/2000/svg"><defs
     id="defs1" /><g
     id="layer1"
     transform="translate(-37.303064,-57.234197)" /><g
     id="layer3"
     transform="translate(-12.550272,-15)"><g
       id="g13"
       style="fill:#1e1458;fill-opacity:1"><path
         style="fill:#1e1458;fill-opacity:1;stroke-width:1.59152"
         d="m 64.661792,169.79619 c -0.774476,-0.38627 -1.732856,-1.36716 -2.158766,-2.20942 -0.723699,-1.43118 -12.004232,-43.79201 -20.173747,-75.756705 l -1.217117,-4.762183 1.101798,1.029594 c 4.882552,4.562556 15.230247,4.985373 21.175595,0.865267 1.962322,-1.359884 4.828376,-4.417896 5.4791,-5.84607 0.664399,-1.458203 1.084009,-1.317273 1.569479,0.527121 3.743789,14.223328 11.120533,41.651876 11.389169,42.347656 0.409346,1.06025 0.351735,1.18761 1.679336,-3.71275 2.371687,-8.75423 6.378897,-20.34093 7.89919,-22.840187 3.10107,-5.097943 7.23752,-8.529552 12.336291,-10.234183 3.51177,-1.174054 9.46653,-0.997694 13.05379,0.386607 5.58167,2.153938 10.74035,7.714608 13.19103,14.218983 1.08906,2.89046 5.70615,17.63633 6.63978,21.20586 l 0.49563,1.89491 1.16389,-4.21091 c 0.64012,-2.31599 3.37729,-12.35841 6.08255,-22.31648 2.70527,-9.958026 4.96641,-18.153254 5.02477,-18.211606 0.0584,-0.05835 0.71623,0.835512 1.46195,1.986356 5.29051,8.164602 18.20937,10.29093 25.769,4.241336 l 1.50764,-1.206504 -0.56739,2.173158 c -0.31208,1.195224 -4.84136,18.84826 -10.06508,39.229 -5.22371,20.38074 -9.81562,37.71662 -10.20424,38.52415 -0.3886,0.80754 -1.35042,1.89711 -2.13736,2.42128 -1.41843,0.94476 -1.55875,0.95298 -16.21196,0.95143 -18.76285,-0.002 -17.42216,0.59181 -19.96174,-8.84132 -0.71704,-2.66339 -3.03067,-11.28519 -5.14141,-19.15958 -4.53823,-16.93051 -4.18874,-15.82501 -4.65921,-14.73814 -0.2005,0.4632 -2.46544,8.80077 -5.03321,18.52795 -2.56777,9.72717 -4.943734,18.66908 -5.279941,19.8709 -0.44585,1.59376 -0.980477,2.44846 -1.9755,3.15817 -1.355603,0.9669 -1.457317,0.9737 -16.102363,1.07702 -12.987891,0.0917 -14.903547,0.0215 -16.130954,-0.59071 z"
         id="path1"
         transform="translate(-24.752792,-42.234196)" /><path
         id="path10"
         style="font-weight:bold;font-size:154.148px;font-family:'Inter 18pt';-inkscape-font-specification:'Inter 18pt, Bold';letter-spacing:-0.264583px;fill:#1e1458;stroke-width:0.278772;fill-opacity:1"
         d="m 282.67008,41.381643 a 18.683697,18.966078 0 0 1 -14.7779,7.361355 18.683697,18.966078 0 0 1 -14.23531,-6.682556 l -0.31574,85.836658 h 29.45866 c 1e-5,-28.992212 -0.12197,-57.55068 -0.12971,-86.515457 z" /><path
         id="path11"
         style="font-weight:bold;font-size:154.148px;font-family:'Inter 18pt';-inkscape-font-specification:'Inter 18pt, Bold';letter-spacing:-0.264583px;fill:#1e1458;fill-opacity:1;stroke-width:0.254283"
         transform="translate(-24.752792,-42.234197)"
         d="m 442.51089,108.15667 c 4.18771,-0.11328 8.39489,1.92131 10.64117,5.35088 2.87212,4.11608 3.61715,9.21121 3.70803,14.06722 -0.007,5.11024 -0.83271,10.47749 -3.88969,14.78261 -1.72774,2.48135 -4.4012,4.39222 -7.48291,4.9535 -4.16756,0.83474 -8.96034,-0.06 -11.91224,-3.17227 -3.38253,-3.56776 -4.6221,-8.47241 -4.99964,-13.1677 -0.28533,-3.64145 -0.11267,-7.38158 0.70186,-10.91602 0.87922,-4.13977 3.074,-8.32288 7.00156,-10.489 1.88954,-1.02841 4.08315,-1.39092 6.23186,-1.40922 z m -7.93824,-23.860565 c -11.55656,0.215881 -22.78313,6.390408 -28.81594,15.876225 -5.07321,7.62191 -7.16369,16.76422 -7.31802,25.73139 -0.2455,8.97936 1.02979,18.21433 5.28132,26.30805 3.53713,6.77749 9.23878,12.61853 16.4085,15.88575 7.16182,3.31982 15.48611,4.17378 23.25534,2.63799 4.82007,-1.0052 9.32592,-3.31031 12.89221,-6.58593 0,11.80665 0,23.61331 0,35.41999 9.81952,0 19.63904,0 29.45855,0 0,-38.05551 0,-76.11096 0,-114.166478 -9.72054,0 -19.44107,0 -29.16162,0 -0.003,2.156388 0.005,4.328684 -0.004,6.47506 -4.82711,-4.511925 -11.39317,-7.24634 -18.12182,-7.510345 -1.28907,-0.08335 -2.58313,-0.08397 -3.87468,-0.07168 z" /><path
         style="font-weight:bold;font-size:154.148px;font-family:'Inter 18pt';-inkscape-font-specification:'Inter 18pt, Bold';letter-spacing:-0.264583px;fill:#1e1458;stroke-width:0.254283;fill-opacity:1"
         d="m 353.04785,84.303605 c -8.3686,0.209712 -16.93808,1.870608 -24.08468,6.237544 -6.34401,3.81633 -11.17721,10.264021 -12.03624,17.503501 -1.01182,6.56511 0.47138,13.69394 4.96542,18.85926 4.32344,5.02291 10.67317,8.00078 17.11778,9.67033 7.11645,1.89895 14.52563,2.57045 21.625,4.53181 1.36723,0.45466 2.84951,0.96731 3.85252,2.10537 1.13238,1.13255 0.63675,2.95509 -0.48349,3.91078 -1.65114,1.35095 -3.85956,1.90488 -5.97367,2.15036 -3.57205,0.28627 -7.40523,0.24152 -10.61295,-1.49224 -2.78366,-1.42967 -4.30858,-4.32448 -4.95707,-7.18747 -0.35647,-1.63684 -2.36405,-2.3018 -3.92117,-2.03654 -3.52207,0.56742 -7.08427,0.92824 -10.62215,1.41449 -4.61831,0.59317 -9.23664,1.1863 -13.85495,1.77948 0.59781,6.97358 3.29573,13.96865 8.47359,18.99868 6.14583,6.02704 14.69449,9.3426 23.30192,10.40745 10.13506,1.27027 20.73644,0.5998 30.23818,-3.22035 6.58286,-2.70026 12.66618,-7.13788 16.05238,-13.31474 3.92446,-7.19573 4.1364,-16.355 -0.12764,-23.4607 -3.237,-5.14234 -8.74609,-8.57814 -14.53724,-10.56363 -6.73296,-2.34797 -13.88646,-3.17209 -20.85093,-4.63136 -3.0013,-0.58247 -6.04232,-1.00643 -8.75899,-2.41095 -1.41191,-0.76404 -2.30991,-2.56418 -1.46172,-4.01837 1.06725,-1.66404 3.14419,-2.37943 5.0233,-2.83332 3.1004,-0.5605 6.44938,-0.60591 9.39466,0.61256 2.69824,1.05889 4.65924,3.49191 5.23494,6.21899 0.19282,0.7045 0.2923,1.42771 0.40586,2.14675 1.24319,0.67928 2.63684,0.0473 3.94624,-0.0106 7.67948,-1.00767 15.35892,-2.01568 23.03845,-3.02315 -0.54405,-7.72626 -4.22151,-15.383529 -10.60086,-20.231964 -6.23705,-4.906242 -14.26188,-7.223567 -22.19149,-7.885968 -2.5246,-0.216818 -5.06144,-0.265107 -7.595,-0.226218 z"
         transform="translate(-24.752792,-42.234197)"
         id="path8" /><path
         style="font-weight:bold;font-size:154.148px;font-family:'Inter 18pt';-inkscape-font-specification:'Inter 18pt, Bold';letter-spacing:-0.264583px;fill:#1e1458;stroke-width:0.254283;fill-opacity:1"
         d="m 184.87891,58.722301 c 0,37.136404 0,74.272799 0,111.409219 9.81947,0 19.63895,0 29.45849,0 0.013,-16.7679 -0.0673,-33.53724 0.0973,-50.30407 0.28229,-3.7508 2.21523,-7.67209 5.83547,-9.41307 4.01461,-2.03139 9.16187,-2.03933 13.07961,0.21023 2.95831,1.91511 4.36163,5.40353 4.47753,8.73233 0.24111,3.67694 0.0119,7.36315 0.0964,11.04416 0.002,13.24346 0.005,26.48693 0.007,39.73042 9.84394,0 19.68788,0 29.53182,0 -0.0122,-18.60244 0.0657,-37.20612 -0.10138,-55.80766 -0.43021,-7.59811 -3.0834,-15.301023 -8.51559,-20.960364 -5.72313,-5.986283 -14.2541,-9.056581 -22.62305,-9.058563 -7.11264,-0.186098 -14.52045,1.552781 -20.09762,5.959343 -0.72864,0.550445 -1.41802,1.147225 -2.08604,1.764156 0,-11.269546 0,-22.539088 0,-33.808634 -9.72055,0 -19.44109,0 -29.16163,0 0,0.167505 0,0.335 0,0.502503 z"
         transform="translate(-24.752792,-42.234197)"
         id="path7" /></g><g
       id="g14"><circle
         style="fill:#5ce0f2;fill-opacity:1;stroke-width:0.421089"
         id="path2"
         cx="53.410553"
         cy="74.309212"
         r="16.107489"
         transform="translate(-24.752792,-42.234196)" /><circle
         style="fill:#5ce0f2;fill-opacity:1;stroke-width:0.421089"
         id="circle2"
         cx="165.87012"
         cy="74.309212"
         r="16.107489"
         transform="translate(-24.752792,-42.234196)" /><circle
         style="fill:#5ce0f2;fill-opacity:1;stroke-width:0.421089"
         id="circle13"
         cx="267.89215"
         cy="31.107489"
         r="16.107489" /></g></g></svg>
