<?xml version="1.0" encoding="UTF-8" standalone="no"?>
<!-- Created with Inkscape (http://www.inkscape.org/) -->

<svg
   width="170mm"
   height="170mm"
   viewBox="0 0 170 170"
   version="1.1"
   id="svg1"
   xml:space="preserve"
   xmlns="http://www.w3.org/2000/svg"
   xmlns:svg="http://www.w3.org/2000/svg"><defs
     id="defs1" /><g
     id="layer1"
     transform="translate(-24.752792,-42.234197)"><g
       id="layer2"
       transform="translate(9.7527919,27.234196)"><rect
         style="fill:#4f46e5;fill-opacity:1;stroke-width:0.257202"
         id="rect2"
         width="170"
         height="170"
         x="24.752792"
         y="42.234196"
         transform="translate(-9.752792,-27.234195)"
         rx="20"
         ry="20" /></g><path
       style="fill:#ffffff;fill-opacity:1;stroke-width:1.59152"
       d="m 64.661792,182.34055 c -0.774476,-0.38627 -1.732856,-1.36716 -2.158766,-2.20942 -0.723699,-1.43118 -12.004232,-43.79201 -20.173747,-75.75675 l -1.217117,-4.762207 1.101798,1.029597 c 4.882552,4.56258 15.230247,4.9854 21.175595,0.86527 1.962322,-1.35989 4.828376,-4.417902 5.4791,-5.846076 0.664399,-1.458203 1.084009,-1.317273 1.569479,0.527121 3.743789,14.223385 11.120533,41.651945 11.389169,42.347725 0.409346,1.06025 0.351735,1.18761 1.679336,-3.71275 2.371687,-8.75423 6.378897,-20.34093 7.89919,-22.84019 3.10107,-5.09797 7.23752,-8.5296 12.336291,-10.23424 3.51177,-1.17406 9.46653,-0.9977 13.05379,0.38661 5.58167,2.15395 10.74035,7.71465 13.19103,14.21904 1.08906,2.89046 5.70615,17.63633 6.63978,21.20586 l 0.49563,1.89491 1.16389,-4.21091 c 0.64012,-2.31599 3.37729,-12.35841 6.08255,-22.31648 2.70527,-9.95808 4.96641,-18.153323 5.02477,-18.211675 0.0584,-0.05835 0.71623,0.835512 1.46195,1.986356 5.29051,8.164629 18.20937,10.290969 25.769,4.241339 l 1.50764,-1.206507 -0.56739,2.173167 c -0.31208,1.19523 -4.84136,18.84832 -10.06508,39.22906 -5.22371,20.38074 -9.81562,37.71662 -10.20424,38.52415 -0.3886,0.80754 -1.35042,1.89711 -2.13736,2.42128 -1.41843,0.94476 -1.55875,0.95298 -16.21196,0.95143 -18.76285,-0.002 -17.42216,0.59181 -19.96174,-8.84132 -0.71704,-2.66339 -3.03067,-11.28519 -5.14141,-19.15958 -4.53823,-16.93051 -4.18874,-15.82501 -4.65921,-14.73814 -0.2005,0.4632 -2.46544,8.80077 -5.03321,18.52795 -2.56777,9.72717 -4.943734,18.66908 -5.279941,19.8709 -0.44585,1.59376 -0.980477,2.44846 -1.9755,3.15817 -1.355603,0.9669 -1.457317,0.9737 -16.102363,1.07702 -12.987891,0.0917 -14.903547,0.0215 -16.130954,-0.59071 z"
       id="path1" /><g
       id="g2"
       transform="matrix(1.5915204,0,0,1.5915204,-43.234383,-37.986892)"><circle
         style="fill:#5ce0f2;fill-opacity:1;stroke-width:0.264583"
         id="path2"
         cx="60.724911"
         cy="78.206314"
         r="10.120818" /><circle
         style="fill:#5ce0f2;fill-opacity:1;stroke-width:0.264583"
         id="circle2"
         cx="131.38663"
         cy="78.206314"
         r="10.120818" /></g></g></svg>
